<svg width="32" height="32" viewBox="0 0 32 32" fill="none" xmlns="http://www.w3.org/2000/svg">
    <circle cx="16" cy="16" r="16" fill="white"/>
    <path fill-rule="evenodd" clip-rule="evenodd" d="M18.3165 11.6924C18.3165 8.5702 16.7949 5.88529 15.6376 5.01097C15.6328 5.00822 15.549 4.9611 15.5561 5.08595L15.5545 5.0898C15.4584 11.118 12.3773 12.7519 10.6835 14.9528C6.77447 20.0318 10.4098 25.6004 14.1117 26.6296C16.183 27.2055 13.6334 25.6107 13.305 22.2421C12.9079 18.1706 18.3165 15.0628 18.3165 11.6924Z" fill="#454E72"/>
    <path fill-rule="evenodd" clip-rule="evenodd" d="M20.0928 13.7453C20.0692 13.7291 20.0354 13.7181 20.0121 13.7566C19.9485 14.5155 19.173 16.1387 18.1901 17.6292C14.8563 22.685 16.7561 25.1222 17.8243 26.4312C18.4446 27.1911 17.8243 26.4312 19.3747 25.6546C19.4962 25.5937 22.3998 23.9661 22.7142 20.2576C23.0187 16.6665 20.8608 14.4029 20.0928 13.7453Z" fill="#357CE1"/>
</svg>
