<svg width="36" height="36" viewBox="0 0 36 36" fill="none" xmlns="http://www.w3.org/2000/svg">
<path d="M15.9617 15.9617C16.5803 16.1113 17.2261 16.1929 17.8855 16.1929C18.5517 16.1929 19.1907 16.1113 19.8093 15.9617C20.5231 13.0386 22.8209 10.7341 25.7508 10.0203C25.9004 9.40166 25.9819 8.75585 25.9819 8.09644C25.9819 3.62334 22.3586 0 17.8855 0C13.4124 0 9.78906 3.62334 9.78906 8.09644C9.78906 8.76264 9.87064 9.40166 10.0202 10.0203C12.9501 10.7341 15.2479 13.0386 15.9617 15.9617Z" fill="#7ABDF7"/>
<path d="M19.8162 19.8161C19.1976 19.6665 18.5517 19.585 17.8923 19.585C17.2261 19.585 16.5871 19.6665 15.9685 19.8161C15.2547 22.7392 12.957 25.0438 10.027 25.7576C9.87747 26.3762 9.7959 27.022 9.7959 27.6814C9.7959 32.1545 13.4192 35.7778 17.8923 35.7778C22.3654 35.7778 25.9888 32.1545 25.9888 27.6814C25.9888 27.0152 25.9072 26.3762 25.7576 25.7576C22.8277 25.037 20.53 22.7392 19.8162 19.8161Z" fill="#0D74F5"/>
<path d="M27.6814 9.78906C27.0152 9.78906 26.3762 9.87064 25.7576 10.0202C25.0438 12.9433 22.746 15.2479 19.8161 15.9617C19.6665 16.5803 19.585 17.2261 19.585 17.8855C19.585 18.5517 19.6665 19.1907 19.8161 19.8093C22.7392 20.5231 25.0438 22.8209 25.7576 25.7508C26.3762 25.9004 27.022 25.9819 27.6814 25.9819C32.1545 25.9819 35.7778 22.3586 35.7778 17.8855C35.7778 13.4124 32.1477 9.78906 27.6814 9.78906Z" fill="#4494F7"/>
<path d="M15.9617 19.8162C16.1113 19.1976 16.1929 18.5518 16.1929 17.8923C16.1929 17.2261 16.1113 16.5871 15.9617 15.9685C13.0386 15.2547 10.7341 12.957 10.0203 10.027C9.40166 9.87748 8.75585 9.79591 8.09644 9.79591C3.62334 9.78911 0 13.4125 0 17.8855C0 22.3586 3.62334 25.982 8.09644 25.982C8.76264 25.982 9.40166 25.9004 10.0203 25.7509C10.7341 22.8277 13.0386 20.53 15.9617 19.8162Z" fill="#005CF4"/>
<path d="M19.8164 15.9615C22.7396 15.2477 25.0441 12.95 25.7579 10.02C22.8279 10.7338 20.5302 13.0383 19.8164 15.9615Z" fill="#186EF9"/>
<path d="M19.8164 19.8159C20.5302 22.7391 22.8279 25.0436 25.7579 25.7574C25.0373 22.8274 22.7396 20.5297 19.8164 19.8159Z" fill="#0246F2"/>
<path d="M15.962 15.9615C15.2482 13.0383 12.9505 10.7338 10.0205 10.02C10.7343 12.95 13.0388 15.2477 15.962 15.9615Z" fill="#0046F8"/>
<path d="M15.962 19.8159C13.0388 20.5297 10.7343 22.8274 10.0205 25.7574C12.9505 25.0368 15.2482 22.7391 15.962 19.8159Z" fill="#0729F1"/>
</svg>
